<?xml version="1.0" standalone="no"?><!-- Generator: Adobe Fireworks CS5.1, Export SVG Extension by Aaron Beall (http://fireworks.abeall.com) . Version: 0.6.0  --><!DOCTYPE svg PUBLIC "-//W3C//DTD SVG 1.1//EN" "http://www.w3.org/Graphics/SVG/1.1/DTD/svg11.dtd"><svg id="" viewBox="0 0 12 12" style="background-color:#ffffff00" version="1.1"	xmlns="http://www.w3.org/2000/svg" xmlns:xlink="http://www.w3.org/1999/xlink" xml:space="preserve"	x="0px" y="0px" width="12px" height="12px">	<g id="Layer%201">		<g>			<path d="M 7.542 4.6095 C 7.5427 3.8016 7.2549 3.1115 6.6812 2.5376 C 6.107 1.9634 5.4172 1.676 4.6089 1.6764 C 3.8011 1.6764 3.1109 1.963 2.5366 2.5367 C 1.9628 3.1111 1.6765 3.8012 1.6765 4.6089 C 1.6765 5.416 1.9628 6.107 2.5366 6.6807 C 3.1113 7.2544 3.8019 7.5431 4.6089 7.5422 C 5.4172 7.5431 6.107 7.2544 6.6812 6.6807 C 7.2549 6.1074 7.542 5.4164 7.542 4.6095 ZM 12 11.1616 C 12 11.3889 11.9163 11.5855 11.7515 11.7507 C 11.5855 11.9163 11.3893 12 11.1616 12 C 10.9257 11.9992 10.7297 11.9163 10.5724 11.7499 L 7.2219 8.4062 C 6.4404 8.9473 5.5694 9.2182 4.6089 9.2182 C 3.9851 9.2182 3.3879 9.0967 2.8181 8.8549 C 2.2491 8.6127 1.7579 8.2855 1.345 7.8726 C 0.933 7.4605 0.6052 6.9689 0.3635 6.4005 C 0.1211 5.8303 -0.0004 5.2328 0 4.6089 C -0.0008 3.9845 0.1199 3.3877 0.3628 2.8187 C 0.6049 2.2485 0.9326 1.7573 1.345 1.3453 C 1.7573 0.9326 2.2483 0.6052 2.8189 0.3632 C 3.3879 0.1203 3.9843 0 4.6093 0 C 5.2327 0 5.8303 0.1211 6.4 0.3635 C 6.9694 0.6056 7.4602 0.9326 7.8731 1.3453 C 8.2856 1.7578 8.6132 2.2489 8.8555 2.8187 C 9.0973 3.3877 9.2181 3.9849 9.2181 4.6089 C 9.2181 5.5694 8.9475 6.4401 8.4064 7.2206 L 11.757 10.5718 C 11.9198 10.733 12 10.9296 12 11.1616 L 12 11.1616 Z" fill="#343434"/>		</g>	</g></svg>