<svg xmlns="http://www.w3.org/2000/svg" xmlns:xlink="http://www.w3.org/1999/xlink" width="159" height="154" viewBox="0 0 159 154"><svg viewBox="0 0 27 21" style="background-color:#ffffff00" width="27" height="21" id="abc" x="0" y="0"><g><path d="M27 21h-6.515l-6.48-10.095h6.514L27 21zM0 21h6.514l6.482-10.095H6.48L0 21z" fill="#c4c6c8"/><path d="M20.138 10.095h-6.515L7.143 0h6.515l6.48 10.095z" fill="#ce1126"/></g></svg><svg viewBox="0 0 14 14" style="background-color:#ffffff00" width="14" height="14" id="check" x="27" y="21"><path d="M7 0C3.134 0 0 3.134 0 7s3.134 7 7 7 7-3.134 7-7-3.134-7-7-7zM5.915 10.23l-3.22-3.22L3.93 5.77l1.985 1.986 4.207-4.208 1.237 1.237-5.445 5.445z" fill="#74982f"/></svg><svg viewBox="0 0 10 6" style="background-color:#ffffff00" width="10" height="6" id="down-arrow" x="41" y="35"><path d="M5 6L0 0h10L5 6z" fill="#333"/></svg><svg viewBox="0 0 14 14" style="background-color:#ffffff00" width="14" height="14" id="error" x="51" y="41"><path d="M7 0C5.13 0 3.372.728 2.05 2.05.728 3.372 0 5.13 0 7s.728 3.628 2.05 4.95C3.372 13.272 5.13 14 7 14s3.628-.728 4.95-2.05C13.272 10.628 14 8.87 14 7s-.728-3.628-2.05-4.95C10.628.728 8.87 0 7 0zM5.923 10.23h2.154v2.155H5.923V10.23zm0-8.615h2.154v6.462H5.923V1.615z" fill="#ce1126"/></svg><svg viewBox="0 0 12 10" style="background-color:#ffffff00" width="12" height="10" id="menu" x="65" y="55"><g fill="#363636"><path d="M0 0h12v2H0zM0 4h12v2H0zM0 8h12v2H0z"/></g></svg><svg viewBox="0 0 16 16" style="background-color:#ffffff00" width="16" height="16" id="plus" x="77" y="65"><path d="M8 0C3.582 0 0 3.582 0 8s3.582 8 8 8 8-3.582 8-8-3.582-8-8-8zm4 9H9v3H7V9H4V7h3V4h2v3h3v2z" fill="#00a4e4"/></svg><svg viewBox="0 0 6 10" style="background-color:#ffffff00" width="6" height="10" id="right-arrow" x="93" y="81"><path d="M6 5l-6 5V0l6 5z" fill="#333"/></svg><svg viewBox="0 0 6 9" style="background-color:#ffffff00" width="6" height="9" id="right-arrow-thin" x="99" y="91"><path d="M3.93 4.494L.25 7.72c-.166.146-.25.338-.25.53s.084.384.25.53c.336.293.88.293 1.213 0L5.75 5.03c.334-.293.334-.767 0-1.06L1.462.22C1.128-.073.586-.073.25.22c-.334.293-.334.767 0 1.06l3.682 3.215z" fill="#007db1"/></svg><svg viewBox="0 0 12 12" style="background-color:#ffffff00" width="12" height="12" id="search" x="105" y="100"><path d="M7.542 4.61c0-.808-.287-1.5-.86-2.072-.575-.575-1.265-.862-2.073-.862-.81 0-1.5.287-2.073.86-.574.575-.86 1.265-.86 2.073 0 .806.286 1.497.86 2.07.574.574 1.265.863 2.072.862.807 0 1.497-.288 2.07-.86.575-.575.862-1.266.862-2.073zM12 11.162c0 .227-.084.423-.248.59-.167.164-.363.248-.59.248-.236 0-.432-.084-.59-.25l-3.35-3.344c-.782.54-1.653.812-2.613.812-.625 0-1.222-.12-1.792-.363-.57-.242-1.06-.57-1.473-.982C.933 7.46.605 6.97.363 6.4.12 5.83 0 5.234 0 4.61c0-.626.12-1.222.363-1.79.242-.57.57-1.063.982-1.475.412-.412.903-.74 1.474-.982C3.387.12 3.983 0 4.61 0c.623 0 1.22.12 1.79.363.57.243 1.06.57 1.473.982.413.413.74.904.982 1.474.242.568.363 1.165.363 1.79 0 .96-.27 1.83-.812 2.61l3.35 3.352c.164.16.244.358.244.59z" fill="#343434"/></svg><svg viewBox="0 0 12 12" style="background-color:#ffffff00" width="12" height="12" id="x" x="117" y="112"><path d="M4.406 6L.578 1.937 2.406 0 6.22 3.844 10.062 0l1.828 1.938L8.03 6l3.86 4.063L10.063 12 6.22 8.14 2.36 12 .53 10.062 4.407 6z" fill="#343434"/></svg><svg viewBox="0 0 15 15" style="background-color:#ffffff00" width="15" height="15" id="x-box" x="129" y="124"><g fill="#363636"><path d="M13.994 1.006v12.988H1.006V1.006h12.988zM15 0H0v15h15V0zM5.04 3.643L7.497 6.1l2.444-2.443 1.39 1.39L8.887 7.49l2.478 2.477-1.39 1.39-2.477-2.475-2.473 2.472-1.39-1.39L6.11 7.49 3.65 5.03l1.39-1.387z"/></g></svg><svg viewBox="0 0 15 15" style="background-color:#ffffff00" width="15" height="15" id="x-box-hover" x="144" y="139"><g fill="#007db1"><path d="M13.994 1.006v12.988H1.006V1.006h12.988zM15 0H0v15h15V0zM5.04 3.643L7.497 6.1l2.444-2.443 1.39 1.39L8.887 7.49l2.478 2.477-1.39 1.39-2.477-2.475-2.473 2.472-1.39-1.39L6.11 7.49 3.65 5.03l1.39-1.387z"/></g></svg></svg>