<?xml version="1.0" standalone="no"?><!-- Generator: Adobe Fireworks CS5.1, Export SVG Extension by Aaron Beall (http://fireworks.abeall.com) . Version: 0.6.0  --><!DOCTYPE svg PUBLIC "-//W3C//DTD SVG 1.1//EN" "http://www.w3.org/Graphics/SVG/1.1/DTD/svg11.dtd"><svg id="" viewBox="0 0 14 14" style="background-color:#ffffff00" version="1.1"	xmlns="http://www.w3.org/2000/svg" xmlns:xlink="http://www.w3.org/1999/xlink" xml:space="preserve"	x="0px" y="0px" width="14px" height="14px">	<g id="Layer%201">		<g>			<path d="M 7 0 C 5.1302 0 3.3724 0.7281 2.0503 2.0502 C 0.7281 3.3724 0 5.1302 0 7 C 0 8.8698 0.7281 10.6276 2.0503 11.9498 C 3.3724 13.2719 5.1302 14 7 14 C 8.8698 14 10.6276 13.2719 11.9497 11.9498 C 13.2719 10.6276 14 8.8698 14 7 C 14 5.1302 13.2719 3.3724 11.9497 2.0502 C 10.6276 0.7281 8.8698 0 7 0 ZM 5.9231 10.2308 L 8.0769 10.2308 L 8.0769 12.3846 L 5.9231 12.3846 L 5.9231 10.2308 ZM 5.9231 1.6154 L 8.0769 1.6154 L 8.0769 8.0769 L 5.9231 8.0769 L 5.9231 1.6154 Z" fill="#ce1126"/>		</g>	</g></svg>